<svg xmlns="http://www.w3.org/2000/svg" viewBox="0 0 53.15 53.15"><title>Ресурс 3</title><g id="Слой_2" data-name="Слой 2"><g id="body"><path d="M26.35,0a26.58,26.58,0,1,0,26.8,26.35A26.57,26.57,0,0,0,26.35,0Zm.08,10.29a9.43,9.43,0,1,1-9.34,9.51A9.44,9.44,0,0,1,26.43,10.29Zm.32,36.86A20.56,20.56,0,0,1,11,40a12,12,0,0,1,10.5-6.5,2.74,2.74,0,0,1,.76.11,14.26,14.26,0,0,0,4.39.7A14.14,14.14,0,0,0,31,33.51a2.74,2.74,0,0,1,.76-.12A12,12,0,0,1,42.39,39.7,20.55,20.55,0,0,1,26.75,47.15Z" style="fill:#500c76"/></g></g></svg>