<svg xmlns="http://www.w3.org/2000/svg" viewBox="0 0 68.72 50.66"><title>Ресурс 4</title><g id="Слой_2" data-name="Слой 2"><g id="body"><path d="M68.72,2.79c-1.88-1.34-4-1.57-6.13-1.83-4.79-.6-9.2.7-13.52,2.43-.22-.1-.46-.18-.68-.27A6.44,6.44,0,0,0,45.24,2C43.16.52,40.65.43,38.27.23c-4.76-.4-9.55-.52-14,1.66l-.4.12a4.37,4.37,0,0,0-2.59.91l-.82.32a12.07,12.07,0,0,1-2.56-.8c-6-2-12-2.18-17.9.36C5.48,3,11.1,2.19,16.24,5.19c-.22.23-.45.44-.68.66C8.55,10.41,4,17.43,4,25.32,4,32.53,7.83,39,13.84,43.56c6.29,5.52,14.21,7.53,23.26,7a32.4,32.4,0,0,0,19.77-8.23,22.39,22.39,0,0,0,3.7-4,21.57,21.57,0,0,0,4.55-13c0-7.49-4.07-14.18-10.47-18.75l-1.6-1.42C58.11,2.48,63.42,2.82,68.72,2.79Z" style="fill:#500c76"/><path d="M27.35,26.6A1.9,1.9,0,0,1,26,23.38a5.73,5.73,0,1,0,2.67,2.67A1.87,1.87,0,0,1,27.35,26.6Z" style="fill:#fff"/><path d="M51.21,26.74a2,2,0,0,1-1.45-3.46,6.16,6.16,0,1,0,2.88,2.88A2,2,0,0,1,51.21,26.74Z" style="fill:#fff"/><path d="M47.14,10.45a14.24,14.24,0,0,0-12.23,6.94,14.26,14.26,0,1,0-4.27,19.15l4.81,8L40,37a14.26,14.26,0,1,0,7.18-26.57ZM23.56,36.06A9.46,9.46,0,1,1,33,26.6,9.47,9.47,0,0,1,23.56,36.06Zm23.58.87A10.19,10.19,0,1,1,57.32,26.74,10.19,10.19,0,0,1,47.14,36.93Z" style="fill:#fff"/></g></g></svg>