<svg xmlns="http://www.w3.org/2000/svg" viewBox="0 0 56.98 42.74"><title>Ресурс 5</title><g id="Слой_2" data-name="Слой 2"><g id="body"><path d="M55.91,14.11a.67.67,0,0,1,1.07.53V37.4a5.34,5.34,0,0,1-5.34,5.34H5.34A5.34,5.34,0,0,1,0,37.4V14.65a.67.67,0,0,1,1.08-.53c2.49,1.94,5.8,4.4,17.15,12.65,2.35,1.71,6.31,5.32,10.26,5.3s8-3.66,10.28-5.3C50.12,18.52,53.41,16.05,55.91,14.11ZM28.49,28.49c2.58.05,6.3-3.25,8.17-4.61C51.43,13.17,52.56,12.23,56,9.56a2.64,2.64,0,0,0,1-2.1V5.34A5.34,5.34,0,0,0,51.64,0H5.34A5.34,5.34,0,0,0,0,5.34V7.46a2.69,2.69,0,0,0,1,2.1c3.41,2.66,4.53,3.61,19.3,14.32,1.87,1.36,5.59,4.66,8.17,4.61Z" style="fill:#500c76"/></g></g></svg>