<svg xmlns="http://www.w3.org/2000/svg" viewBox="0 0 43.18 41.84"><title>Ресурс 3</title><g id="Слой_2" data-name="Слой 2"><g id="body"><path d="M.51,20.79c0-4.35,0-8.69,0-13a6.94,6.94,0,0,1,7-7.19Q21.54.42,35.57.57a7.14,7.14,0,0,1,7.06,7q.1,13.45,0,26.9a7.16,7.16,0,0,1-7.14,6.87q-14.19.1-28.38,0A6.78,6.78,0,0,1,.53,34.66C.48,30,.51,25.41.51,20.79Z" style="fill:none;stroke:#500c76;stroke-miterlimit:10"/><path d="M28.71,28.38c-.68-1.68-1.93-2.06-3.69-2-5.42.06-5.41,0-5.5-5.38,0-1.55-.1-3.1-.16-4.66,0-.36,0-.73,0-1.09.25-.52.14-1.24.82-1.53,1.56-.25,2.76.11,2.63,2s.81,2.33,2.43,2.18a4.17,4.17,0,0,1,1.32.12c.67.17,1.32.48,1.35,1.27a1.33,1.33,0,0,1-1.24,1.34c-.87.16-1.76.16-2.64.25a1.09,1.09,0,0,0-1.1,1.34c.08.7.58.88,1.17.92.33,0,.67,0,1,0,1.61.21,3.59-.73,4.75.77a23.66,23.66,0,0,1,3.09,6.61,1.37,1.37,0,0,1-1,1.84,1.43,1.43,0,0,1-2-1.23c-.44-.35-.2-1-.64-1.37a.25.25,0,0,1-.1-.36A1.5,1.5,0,0,0,28.71,28.38Z" style="fill:#500c76"/><path d="M18,17c1.39,1.29.8,2.26-.5,3.14a6.7,6.7,0,0,0-3.12,6.54,6.63,6.63,0,0,0,4.57,6c2.86,1,5.64.54,7.56-1.85,1.37-1.69,2-.74,2.91.2A9.46,9.46,0,1,1,14.59,19.4c.62-.63,1.33-1.17,2-1.75.37-.4,1-.27,1.37-.66Z" style="fill:#500c76"/><path d="M24.11,9.69a2.69,2.69,0,0,1-3.06,2.72,2.71,2.71,0,0,1-2.63-3.16,2.65,2.65,0,0,1,2.9-2.55A2.66,2.66,0,0,1,24.11,9.69Z" style="fill:#500c76"/></g></g></svg>