<svg xmlns="http://www.w3.org/2000/svg" viewBox="0 0 41.72 41.72"><title>Ресурс 5</title><g id="Слой_2" data-name="Слой 2"><g id="footer"><path d="M23.56,18.16a5.81,5.81,0,0,1,0,8.21h0L21,29a5.81,5.81,0,0,1-8.22-8.22l1.42-1.42a.62.62,0,0,1,1.05.41,6.61,6.61,0,0,0,.37,2,.63.63,0,0,1-.15.64l-.5.5a2.75,2.75,0,1,0,3.87,3.92l2.57-2.57a2.76,2.76,0,0,0,0-3.9A2.42,2.42,0,0,0,21,20a.62.62,0,0,1-.26-.48,1.48,1.48,0,0,1,.45-1.14l.8-.81a.62.62,0,0,1,.79-.07,6.18,6.18,0,0,1,.78.66ZM29,12.77a5.83,5.83,0,0,0-8.22,0l-2.57,2.57v0a5.81,5.81,0,0,0,0,8.2,6.28,6.28,0,0,0,.79.66.61.61,0,0,0,.78-.07l.81-.8A1.55,1.55,0,0,0,21,22.21a.61.61,0,0,0-.27-.48,4.26,4.26,0,0,1-.4-.33,2.77,2.77,0,0,1,0-3.9l2.57-2.56a2.75,2.75,0,1,1,3.87,3.91l-.5.5a.63.63,0,0,0-.14.64,7.42,7.42,0,0,1,.37,2,.61.61,0,0,0,1,.4L29,21a5.81,5.81,0,0,0,0-8.22Z" style="fill:#500c76"/><circle cx="20.86" cy="20.86" r="20.36" style="fill:none;stroke:#500c76;stroke-miterlimit:10"/></g></g></svg>