<svg xmlns="http://www.w3.org/2000/svg" viewBox="0 0 16.75 16.75"><title>Ресурс 6</title><g id="Слой_2" data-name="Слой 2"><g id="body"><path d="M10.58,6.17a4.74,4.74,0,0,1,0,6.7v0L8.48,15A4.75,4.75,0,0,1,1.76,8.27L2.92,7.11a.5.5,0,0,1,.86.33,5.92,5.92,0,0,0,.3,1.65A.5.5,0,0,1,4,9.61L3.55,10a2.26,2.26,0,0,0,0,3.18,2.24,2.24,0,0,0,3.19,0l2.1-2.1a2.24,2.24,0,0,0,0-3.18,1.76,1.76,0,0,0-.32-.27.53.53,0,0,1-.22-.4,1.26,1.26,0,0,1,.37-.93l.66-.65a.49.49,0,0,1,.64-.06,4.69,4.69,0,0,1,.64.54ZM15,1.76a4.76,4.76,0,0,0-6.72,0l-2.1,2.1v0a4.76,4.76,0,0,0,.65,7.24.5.5,0,0,0,.64,0l.66-.66a1.26,1.26,0,0,0,.37-.93.53.53,0,0,0-.22-.4,1.76,1.76,0,0,1-.32-.27,2.25,2.25,0,0,1,0-3.18L10,3.53a2.24,2.24,0,0,1,3.19,0,2.26,2.26,0,0,1,0,3.18l-.41.41a.5.5,0,0,0-.12.52A5.92,5.92,0,0,1,13,9.31a.5.5,0,0,0,.86.33L15,8.48a4.76,4.76,0,0,0,0-6.72Z" style="fill:none;stroke:#000;stroke-miterlimit:10;stroke-width:0.75px"/></g></g></svg>