<svg xmlns="http://www.w3.org/2000/svg" viewBox="0 0 22.37 22.85"><title>Ресурс 3</title><g id="Слой_2" data-name="Слой 2"><g id="header"><path d="M21.13,15.69c-1.1-.9-2.47-2-2.66-6.64a7.11,7.11,0,0,0-6.66-6.46A1.33,1.33,0,0,0,12,1.8,1.46,1.46,0,0,0,10.46.5,1.46,1.46,0,0,0,9,1.93a1.27,1.27,0,0,0,.3.77c-3.59.69-6.23,3.61-6.08,7,.19,4.61-1.08,5.85-2.1,6.84C-.27,17.89.84,20.06,2.88,20l5.34-.23a2.9,2.9,0,0,0,3.17,2.6,2.91,2.91,0,0,0,2.94-2.86l5.33-.22C21.7,19.17,22.63,16.92,21.13,15.69Z" style="fill:none;stroke:#500c76;stroke-miterlimit:10"/></g></g></svg>